<svg width="62" height="62" fill="none" xmlns="http://www.w3.org/2000/svg"><circle cx="31" cy="31" r="31" fill="#fff"/><path d="M40.01 22.044l-.915.357a6.045 6.045 0 00-2.205 1.43l-2.285 2.266-10.75-2.126c-.317-.06-.655.04-.893.278l-.537.536c-.08.08-.06.239.04.299l8.782 4.45-4.172 4.63-4.193-1.113a.414.414 0 00-.397.1l-.437.436c-.08.08-.06.239.06.318l3.774 2.226-.119.456a.46.46 0 00.556.557l.457-.12 2.226 3.776c.06.119.218.139.318.04l.437-.438c.1-.099.139-.258.1-.397l-1.094-4.212 4.63-4.173 4.45 8.782c.06.12.2.14.298.04l.537-.536c.238-.239.338-.577.278-.895L36.79 28.282l2.285-2.285a6.312 6.312 0 001.43-2.205l.358-.914c.18-.517-.337-1.033-.854-.834z" fill="#842990"/></svg>