<svg width="62" height="62" fill="none" xmlns="http://www.w3.org/2000/svg"><circle cx="31" cy="31" r="31" fill="#fff"/><path d="M27.073 30.575h7.855a.36.36 0 00.36-.36V22.36a.36.36 0 00-.36-.36h-7.855a.36.36 0 00-.36.36v7.855a.36.36 0 00.36.36zm1.166-5.184a.36.36 0 01.36-.248h1.584l.457-1.509a.36.36 0 01.684 0l.49 1.509h1.584a.36.36 0 01.212.651l-1.281.933.49 1.508a.36.36 0 01-.555.403L31 27.702l-1.281.933a.36.36 0 01-.555-.403l.49-1.509-1.282-.929a.36.36 0 01-.133-.403zm11.4 6.034h-7.855a.36.36 0 00-.36.36v7.855a.36.36 0 00.36.36h7.855a.36.36 0 00.36-.36v-7.855a.36.36 0 00-.36-.36zm-1.26 6.606a.36.36 0 01-.313.18h-4.698a.36.36 0 01-.313-.54l2.35-4.068a.361.361 0 01.623 0l2.351 4.068a.36.36 0 010 .36zm-8.164-6.606H22.36a.36.36 0 00-.36.36v7.855a.36.36 0 00.36.36h7.855a.36.36 0 00.36-.36v-7.855a.36.36 0 00-.36-.36zm-3.927 7.005a2.718 2.718 0 11-.008-5.436 2.718 2.718 0 01.008 5.436z" fill="#842990"/></svg>