<svg width="62" height="62" fill="none" xmlns="http://www.w3.org/2000/svg"><circle cx="31" cy="31" r="31" fill="#fff"/><path d="M30.332 36.037c.847 0 1.524.677 1.524 1.44 0 .846-.677 1.523-1.524 1.523a1.517 1.517 0 01-1.523-1.524c0-.762.677-1.439 1.523-1.439zm7.366 0c.761 0 1.439.677 1.439 1.44 0 .846-.678 1.523-1.44 1.523a1.517 1.517 0 01-1.523-1.524c0-.762.677-1.439 1.524-1.439zm-16-11.597c-.93 0-.93-1.44 0-1.44H25l1.185 3.048H41l-2.032 7.11H28.894l.339.847h9.397c.93 0 .93 1.44 0 1.44H28.302l-4.233-11.006h-2.37z" fill="#842990"/></svg>