<svg width="62" height="62" fill="none" xmlns="http://www.w3.org/2000/svg"><circle cx="31" cy="31" r="31" fill="#fff"/><path d="M40.506 26.477c0-1.502-1.259-2.72-2.812-2.72-.218 0-.43.027-.632.072-.266-1.339-1.482-2.35-2.943-2.35-.492 0-.955.116-1.364.318A2.735 2.735 0 0030.816 21a2.73 2.73 0 00-1.936.795 2.742 2.742 0 00-1.636-.538c-1.268 0-2.329.848-2.617 1.988-1.265.437-2.171 1.602-2.171 2.975 0 .58.164 1.12.445 1.587A3.06 3.06 0 0022 29.97c0 1.726 1.446 3.124 3.23 3.124.503 0 .977-.114 1.401-.312a3.694 3.694 0 002.26.231c.281.476.666 1.045 1.064 1.369.725.59 1.254 4.099.212 5.619h3.39s-2.61-3.64.613-6.993c.69.425 1.506.675 2.384.675 2.456 0 4.446-1.925 4.446-4.3 0-.788-.222-1.523-.604-2.158.07-.238.11-.488.11-.747zm-10.198 7.357c-.116.182-.45-.407-.75-1.033a3.6 3.6 0 00.538-.28c.178.552.325 1.138.212 1.313zm1.537 1.298c-.357.624-.492-.778-.54-2.127.25.056.51.085.777.088.066.737.047 1.542-.238 2.04zm.864-1.161c-.173.297-.202-.228-.181-.901a3.61 3.61 0 00.442-.077c-.031.343-.104.71-.26.978z" fill="#842990"/></svg>