<svg width="62" height="62" fill="none" xmlns="http://www.w3.org/2000/svg"><circle cx="31" cy="31" r="31" fill="#fff"/><path d="M40.645 27.144L38.99 25.49l1.243-1.243a.585.585 0 000-.828l-1.664-1.665a.603.603 0 00-.829 0l-1.243 1.243-1.654-1.654A1.172 1.172 0 0033.187 23l5.8 5.801a1.172 1.172 0 001.658-1.657zM28.801 39l-5.8-5.801a1.172 1.172 0 00-1.658 1.657l1.654 1.654-1.24 1.24a.586.586 0 000 .83l1.664 1.663a.584.584 0 00.829 0l1.24-1.24 1.654 1.654a1.172 1.172 0 101.657-1.658zm2.729-11.028l-3.557 3.57 2.486 2.486 3.557-3.57-2.486-2.486zm7.458 2.486L31.53 23a1.172 1.172 0 00-1.657 1.658l7.457 7.457a1.172 1.172 0 001.658-1.657zm-6.873 6.884l-7.458-7.458A1.172 1.172 0 1023 31.542l7.457 7.457a1.172 1.172 0 101.658-1.657z" fill="#842990"/></svg>