<svg width="62" height="62" fill="none" xmlns="http://www.w3.org/2000/svg"><circle cx="31" cy="31" r="31" fill="#fff"/><path d="M24.262 23v13.12c2.894-.017 5.05 1.562 6.786 3.01V25.714c-1.921-1.61-4.08-2.716-6.786-2.714zm14.476 0c-2.706-.003-4.865 1.104-6.786 2.714V39.13c1.736-1.448 3.892-3.027 6.786-3.01V23zM22 24.81v13.119l7.917 1.357c-1.505-1.135-3.403-2.274-5.655-2.262h-.453a.47.47 0 01-.452-.453V25L22 24.81zm19 0l-1.357.19v11.571a.47.47 0 01-.453.453h-.452c-2.252-.012-4.15 1.127-5.655 2.262L41 37.929v-13.12z" fill="#842990"/></svg>