<svg width="800" height="474" fill="none" xmlns="http://www.w3.org/2000/svg"><path opacity=".2" fill-rule="evenodd" clip-rule="evenodd" d="M800 0H0v474h800V0zM390.55 35.553a209.974 209.974 0 0171.047 4.846c-4.488-3.089-5.781-8.879-2.82-13.45 2.696-3.81 7.272-5.263 11.581-4.028C536.079 39.973 592.47 85.92 618.484 151.835c43.597 110.747-14.899 236.237-131.138 280.441-110.686 41.777-233.532-5.557-282.617-106.278-.06-.222-.178-.429-.296-.635-.118-.207-.236-.414-.296-.636l-.12-.444c-1.012-2.825-.805-5.736.972-8.35 2.98-4.599 9.359-5.818 14.087-3.028 2.043 1.123 3.279 2.937 4.05 4.874 44.651 91.666 156.425 134.801 257.152 96.621 28.531-10.797 53.258-27.063 73.358-47.032-20.069 19.833-44.728 35.986-73.186 46.749-77.745 29.457-162.359 10.522-217.296-41.999l-.292-.16c-.176-.191-.41-.367-.644-.543-.234-.176-.468-.352-.643-.543l.231-.062c-2.291-2.961-2.444-7.204-.151-10.669 2.98-4.599 9.358-5.818 14.087-3.028l.292.16c.03.111.103.152.176.192.073.04.146.08.176.191.584.321 1.227.864 1.639 1.469 13.836 13.034 29.708 23.754 46.918 31.866-3.841-3.196-4.81-8.561-2.03-12.851 2.636-4.032 7.907-5.67 12.336-3.991 24.333 11.285 51.593 16.64 79.323 15.156-1.112-.23-2.185-.711-3.291-1.319-4.558-3.074-5.886-8.908-2.906-13.508 2.121-3.181 5.881-4.894 9.718-4.485 13.64-1.006 27.204-4.133 40.751-9.159 37.456-13.995 65.559-41.452 80.84-74.07 15.281-32.618 17.68-70.62 3.545-106.371-13.904-35.814-41.956-62.395-75.592-76.546-33.636-14.15-73.087-15.808-110.483-1.591-17.135 6.455-32.271 15.712-45.125 26.98-3.28 3.489-8.963 4.523-13.168 1.832-4.557-3.073-5.886-8.908-2.906-13.508.919-1.196 1.898-2.17 3.168-2.983 11.496-9.94 24.423-18.513 38.788-25.267-2.749.723-5.744.338-8.409-1.128-4.557-3.073-5.886-8.908-2.906-13.508 1.374-2.269 3.916-3.896 6.525-4.35l10.07-4.104c14.826-5.637 29.911-9.32 44.953-11.177-1.318-.203-2.622-.704-3.883-1.398-4.557-3.073-5.886-8.908-2.906-13.508 2.121-3.18 5.65-4.832 9.195-4.584zm169.268 294.848c-20.644 28.873-50.199 52.373-86.607 66.123a192.45 192.45 0 01-48.502 11.44c16.301-1.652 32.676-5.431 48.734-11.501 36.32-13.644 65.788-37.114 86.375-66.062z" fill="#240A3A"/></svg>