<svg width="536" height="178" fill="none" xmlns="http://www.w3.org/2000/svg"><g clip-path="url(#clip0)"><path d="M211.354 106.7c-.697.698-1.593 1.097-2.589 1.097-.995 0-1.891-.399-2.588-1.097-.697-.698-1.095-1.595-1.095-2.592V67.51l-30.265 38.991c-.796.798-1.692 1.296-2.787 1.296-.498 0-.996-.099-1.394-.299-.398-.199-.797-.399-1.195-.798a4.435 4.435 0 01-.796-1.097c-.199-.398-.299-.897-.299-1.396V57.04c0-.997.398-1.795 1.095-2.593.697-.698 1.593-1.097 2.589-1.097.995 0 1.792.4 2.588 1.097.697.698 1.095 1.596 1.095 2.593v36.697l30.364-38.99c.797-.898 1.693-1.297 2.788-1.297.498 0 .995.1 1.394.3.398.199.796.398 1.095.797.298.299.597.698.796 1.197.199.398.299.897.299 1.396v47.167c0 .798-.398 1.695-1.095 2.393z" fill="#fff"/><path d="M170.536 146.09c-1.792-1.396-4.38-.998-5.774.797-.199.2-.299.499-.398.698-1.892 2.892-4.181 5.585-6.67 7.978-3.385 3.191-7.168 5.983-11.349 8.177-11.549 6.083-25.287 7.778-38.727 3.69-11.747-3.59-21.205-11.069-27.477-20.642-.1-.299-.299-.499-.398-.698-1.394-1.795-3.982-2.194-5.774-.798-1.792 1.396-2.19 3.789-.996 5.883 0 .1.1.2.1.2 3.285 5.086 7.466 9.473 12.245 13.362.299.2.597.399.796.599 5.376 4.188 11.549 7.578 18.418 9.772l3.285.898c.1 0 .299.099.398.099 9.757 2.493 20.309 2.793 30.663-.299 7.168-2.094 13.639-5.484 19.114-9.772.2-.2.498-.399.797-.599 4.779-3.789 8.86-8.376 12.245-13.362 0-.1.1-.1.1-.2 1.592-1.795 1.294-4.387-.598-5.783z" fill="#85C441"/><path d="M527.239 75.09C523.058 36.197 493.391 6.281 456.755.2c-1.394-.5-2.987-.2-4.181.897-1.693 1.595-1.792 4.188-.299 5.983.697.698 1.493 1.197 2.389 1.297 33.351 5.285 60.43 32.409 64.213 67.71 2.289 21.14-4.182 41.084-16.526 56.441-12.345 15.357-30.464 25.927-51.47 28.121-30.862 3.291-59.434-12.266-74.267-37.395a2.187 2.187 0 00-.498-.798c0-.1-.1-.1-.1-.199l-.099-.1c-1.593-1.695-4.281-1.895-5.973-.299-1.295 1.196-1.693 2.991-1.096 4.487h-.099c.099.2.299.399.398.598l.1.1c16.327 28.121 48.184 45.472 82.53 41.783 46.691-4.986 80.44-46.968 75.462-93.737z" fill="#842990"/><path d="M535.502 74.291c-3.285-30.514-20.906-56.042-45.396-70.502-1.593-.997-3.584-.897-5.078.4-1.692 1.595-1.792 4.188-.298 5.982.398.5.896.798 1.393.998 22.101 13.262 37.931 36.298 40.917 64.02 2.489 23.334-4.679 45.472-18.318 62.524-13.639 16.953-33.749 28.72-57.044 31.213-44.501 4.786-84.622-25.728-92.586-69.106-.099-.898-.398-1.795-1.095-2.493-1.593-1.696-4.281-1.895-5.973-.3-.996.898-1.394 2.095-1.294 3.391v.199c0 .2.099.399.099.599 8.761 47.666 52.863 81.172 101.745 75.986 51.37-5.584 88.404-51.655 82.928-102.91z" fill="#EC008C"/><path d="M518.976 75.987c-4.579-42.182-42.31-72.796-84.521-68.209l-4.48.599c-1.095-.1-2.29.299-3.087 1.096-1.692 1.596-1.791 4.189-.298 5.984.995.997 2.29 1.495 3.584 1.396v.1c1.692-.3 3.484-.599 5.177-.798 18.815-1.995 36.536 3.789 50.175 14.758 13.639 10.97 23.097 27.224 25.088 45.971 1.991 18.847-3.783 36.597-14.734 50.259-10.951 13.662-27.179 23.135-45.895 25.129-19.612 2.094-38.229-4.288-52.067-16.354a4.212 4.212 0 00-5.376.299c-1.692 1.596-1.792 4.189-.298 5.984.298.299.597.498.896.698 15.43 13.063 36.038 20.043 57.642 17.75 42.211-4.488 72.774-42.381 68.194-84.662z" fill="#F68A22"/><path d="M510.713 76.884c-4.082-37.694-37.83-64.918-75.362-60.83-8.562.898-16.526 3.391-23.794 7.081-.597.2-1.095.499-1.593.897-1.692 1.596-1.792 4.189-.298 5.984 1.393 1.595 3.783 1.795 5.475.698a59.183 59.183 0 0121.006-6.283c16.526-1.794 32.156 3.291 44.103 12.964 11.946 9.673 20.309 23.933 22.001 40.486 1.792 16.554-3.285 32.21-12.942 44.176-9.657 11.967-23.893 20.343-40.419 22.038-5.973.599-11.747.399-17.322-.698a4.163 4.163 0 00-4.381.798c-1.692 1.596-1.792 4.188-.299 5.983.498.499.996.898 1.593 1.097v.1a68.864 68.864 0 0021.305.997c37.831-3.989 65.009-37.794 60.927-75.488z" fill="#85C441"/><path d="M302.943 33.207c-.099-.698-.398-1.197-.796-1.695l.1-.1c-5.078-4.587-10.852-8.576-17.422-11.568-33.65-15.456-73.472-.598-88.902 33.107-3.286 7.28-5.177 14.858-5.874 22.337l11.548-14.858c.498-1.396 1.095-2.792 1.693-4.188 11.946-26.226 40.717-39.49 67.696-32.808.498.1.896.2 1.295.4a53.025 53.025 0 019.159 3.29c5.276 2.393 10.055 5.584 14.236 9.274.896 1.196 2.489 1.894 4.082 1.496 2.19-.3 3.584-2.493 3.185-4.687z" fill="#842990"/><path d="M203.29 56.342c-.598 1.396-1.195 2.792-1.693 4.188l4.48-5.784c.797-.897 1.693-1.296 2.788-1.296.497 0 .995.1 1.393.3.399.199.797.398 1.095.797.299.299.598.698.797 1.197.099.299.199.598.199.897 11.051-20.343 34.446-30.415 56.447-25.03.697.3 1.494.4 2.39.2 2.19-.499 3.683-2.693 3.185-4.887a4.348 4.348 0 00-2.19-2.892c-.398-.199-.796-.398-1.294-.398-26.979-6.682-55.651 6.481-67.597 32.708z" fill="#F68A22"/><path d="M54.257 80.574c0 7.479-2.688 13.86-7.964 19.246-5.277 5.285-11.648 7.977-19.115 7.977-7.466 0-13.937-2.692-19.214-7.977C2.688 94.535 0 88.152 0 80.574c0-7.48 2.688-13.861 7.964-19.146 5.277-5.286 11.748-7.978 19.214-7.978 7.467 0 13.838 2.692 19.115 7.977 2.688 2.693 4.679 5.585 5.973 8.776 1.294 3.091 1.991 6.581 1.991 10.37zM27.08 60.63c-2.788 0-5.376.498-7.666 1.495-2.29.998-4.48 2.493-6.47 4.388-1.992 1.995-3.386 4.089-4.381 6.382-.996 2.294-1.394 4.887-1.394 7.679 0 5.484 1.991 10.27 5.874 14.16 3.882 3.889 8.561 5.883 14.136 5.883 5.575 0 10.254-1.994 14.137-5.883 3.883-3.89 5.874-8.576 5.874-14.16 0-5.485-1.991-10.172-5.874-14.06-3.982-3.89-8.661-5.884-14.236-5.884zm73.967-7.18c.498 0 .996.1 1.394.3.398.199.797.398 1.195.797.299.299.597.698.796 1.197.199.398.299.897.299 1.396v47.167c0 .499-.1.997-.299 1.396-.199.399-.398.798-.796 1.097a3.594 3.594 0 01-1.195.798c-.398.199-.896.299-1.394.299-.497 0-.995-.1-1.393-.299-.398-.2-.797-.399-1.095-.798a4.424 4.424 0 01-.797-1.097c-.199-.399-.299-.897-.299-1.396V60.63H73.272v43.478c0 .498-.1.997-.299 1.396-.199.399-.398.797-.796 1.097a3.575 3.575 0 01-1.195.797c-.398.2-.896.3-1.394.3-.497 0-.995-.1-1.393-.3-.399-.199-.797-.398-1.095-.797a4.44 4.44 0 01-.797-1.097c-.2-.399-.299-.898-.299-1.396V57.04c0-.499.1-.997.3-1.396.198-.4.397-.798.796-1.197a4.412 4.412 0 011.095-.798c.398-.2.896-.299 1.393-.299h31.459v.1zm52.665 7.18h-13.34v43.478c0 .997-.399 1.894-1.096 2.592-.696.698-1.592 1.097-2.588 1.097s-1.892-.399-2.588-1.097c-.697-.698-1.096-1.595-1.096-2.592V60.63h-13.34c-.995 0-1.891-.4-2.588-1.097-.697-.698-1.095-1.596-1.095-2.593 0-.997.398-1.795 1.095-2.593.697-.698 1.593-1.096 2.588-1.096h33.948c.996 0 1.792.398 2.589 1.096.697.698 1.095 1.596 1.095 2.593 0 .997-.398 1.895-1.095 2.593-.697.798-1.494 1.097-2.489 1.097zm70.584 43.577V57.04c0-.499.099-.997.298-1.396.199-.4.399-.798.797-1.197a4.43 4.43 0 011.095-.798c.398-.2.896-.299 1.394-.299 1.393 0 2.488.599 3.185 1.895l20.309 40.686 20.409-40.586c.796-1.297 1.892-1.895 3.186-1.895.498 0 .995.1 1.394.3.398.199.796.398 1.194.797.299.299.597.698.797 1.197.199.398.298.897.298 1.396v47.167c0 .997-.398 1.895-1.095 2.593s-1.593 1.097-2.588 1.097c-.996 0-1.892-.399-2.589-1.097-.697-.698-1.095-1.596-1.095-2.593v-32.01l-16.824 33.606c-.697 1.196-1.693 1.795-3.087 1.795-1.493 0-2.588-.698-3.285-2.194l-16.625-33.307v31.811c0 .997-.399 1.895-1.096 2.593-.696.698-1.592 1.097-2.588 1.097-.995 0-1.891-.399-2.588-1.097-.498-.599-.896-1.496-.896-2.394zm75.661 0c0 .998-.398 1.895-1.095 2.593s-1.593 1.097-2.589 1.097c-.995 0-1.792-.399-2.588-1.097-.697-.698-1.095-1.595-1.095-2.593V57.04c0-.997.398-1.795 1.095-2.593.697-.698 1.593-1.097 2.588-1.097.996 0 1.892.4 2.589 1.097.697.698 1.095 1.596 1.095 2.593v47.167zm55.053-8.675c.498 0 .996.1 1.394.299.398.2.797.399 1.095.798.299.299.598.698.797 1.096.199.4.298.898.298 1.397 0 .997-.398 1.795-1.095 2.592-5.077 3.989-10.752 6.083-17.024 6.083-7.466 0-13.937-2.692-19.213-7.977-5.277-5.285-7.965-11.668-7.965-19.246 0-7.48 2.688-13.861 7.965-19.146 5.276-5.286 11.747-7.978 19.213-7.978 6.372 0 12.246 2.094 17.422 6.382.598.598.996 1.396.996 2.493 0 .499-.1.997-.299 1.396-.199.399-.398.798-.796 1.097-.299.3-.697.598-1.195.798-.398.2-.896.299-1.394.299-.895 0-1.692-.3-2.488-.997-1.693-1.396-3.584-2.394-5.675-3.092-2.091-.698-4.281-1.097-6.571-1.097-5.475 0-10.254 1.995-14.136 5.884-3.883 3.889-5.774 8.576-5.774 14.06 0 5.585 1.891 10.272 5.774 14.16 3.882 3.89 8.561 5.884 14.136 5.884 4.68 0 8.861-1.496 12.445-4.388.597-.598 1.294-.797 2.09-.797zm52.665-34.902h-13.44v43.478c0 .997-.398 1.894-1.095 2.592-.697.698-1.593 1.097-2.589 1.097-.995 0-1.891-.399-2.588-1.097-.697-.698-1.095-1.595-1.095-2.592V60.63h-13.34c-.996 0-1.892-.4-2.589-1.097-.697-.698-1.095-1.596-1.095-2.593 0-.997.398-1.795 1.095-2.593.697-.698 1.593-1.096 2.589-1.096h33.947c.996 0 1.792.398 2.589 1.096.697.698 1.095 1.596 1.095 2.593 0 .997-.398 1.895-1.095 2.593-.597.798-1.394 1.097-2.389 1.097zm65.108 19.944c0 7.479-2.688 13.86-7.964 19.246-5.277 5.285-11.648 7.977-19.115 7.977-7.466 0-13.937-2.692-19.214-7.977-5.276-5.285-7.964-11.668-7.964-19.246 0-7.48 2.688-13.861 7.964-19.146 5.277-5.286 11.748-7.978 19.214-7.978 7.467 0 13.838 2.692 19.115 7.977 2.688 2.693 4.679 5.585 5.973 8.776 1.294 3.091 1.991 6.581 1.991 10.37zM445.704 60.63c-2.787 0-5.376.498-7.665 1.495-2.29.998-4.48 2.493-6.471 4.388-1.991 1.995-3.385 4.089-4.381 6.382-.995 2.294-1.394 4.887-1.394 7.679 0 5.484 1.992 10.27 5.874 14.16 3.883 3.889 8.562 5.883 14.137 5.883 5.475 0 10.254-1.994 14.137-5.883 3.882-3.89 5.873-8.576 5.873-14.16 0-5.485-1.991-10.172-5.873-14.06-4.082-3.89-8.761-5.884-14.237-5.884zM9.955 130.434H8.562v4.786h-.896v-10.071h.896v4.686h1.393l4.182-4.686h.995l-4.38 4.986 4.679 5.085h-1.095l-4.38-4.786zm11.648 4.687v-10.072h3.086c1.096 0 1.991.199 2.589.698.597.399.896 1.097.896 1.994 0 .499-.1.997-.398 1.396-.299.399-.697.599-1.195.798.597.1 1.195.399 1.493.898.398.498.598.997.598 1.595 0 .898-.299 1.596-.896 2.094-.598.499-1.394.698-2.49.698h-3.683v-.099zm.896-5.485h2.39c.796 0 1.393-.199 1.791-.499.399-.299.598-.797.598-1.396 0-.698-.2-1.097-.697-1.496-.398-.299-1.095-.498-1.991-.498H22.4v3.889h.1zm0 .698v4.188h2.788c.796 0 1.393-.199 1.891-.498.398-.399.697-.898.697-1.596 0-.598-.199-1.097-.597-1.496-.398-.399-.996-.598-1.792-.598h-2.987zm18.517 1.994h-4.778l-1.095 2.892h-.896l3.982-10.072h.796l3.982 10.072h-.896l-1.095-2.892zm-4.58-.698h4.282l-2.091-5.484-2.19 5.484zm13.54-.698v4.189h-.896v-10.072h3.684c1.095 0 1.99.299 2.588.798.597.498.896 1.296.896 2.193 0 .898-.299 1.596-.896 2.194-.597.499-1.493.798-2.588.798h-2.788v-.1zm0-.698h2.788c.896 0 1.593-.199 1.99-.598.399-.399.598-.997.598-1.596 0-.698-.199-1.196-.597-1.595-.398-.399-1.095-.598-1.991-.598h-2.788v4.387zm19.911-4.487h-3.584v9.374h-.896v-9.374h-3.584v-.698h8.064v.698zm11.349 6.581h-4.779l-1.095 2.892h-.896l3.983-10.072h.796l3.982 10.072h-.896l-1.095-2.892zm-4.58-.698h4.281l-2.09-5.484-2.19 5.484zm20.509-6.581v10.072h-.896v-9.374h-4.48l-.2 3.889c-.099 2.094-.298 3.49-.696 4.288-.398.798-1.095 1.197-2.19 1.197h-.299v-.699h.299c.697 0 1.194-.299 1.493-.997.299-.698.498-1.894.597-3.789l.2-4.587h6.172zm22.997 10.072h-.896v-9.374h-5.973v9.374h-.896v-10.072h7.765v10.072zm15.032-4.189c0 1.297-.398 2.394-1.095 3.191-.796.798-1.792 1.197-2.986 1.197-1.195 0-2.19-.399-2.987-1.197-.697-.797-1.095-1.894-1.095-3.191v-1.595c0-1.297.398-2.394 1.095-3.191.697-.798 1.693-1.197 2.987-1.197s2.289.399 2.986 1.197c.797.797 1.095 1.894 1.095 3.191v1.595zm-.896-1.695c0-1.097-.298-1.994-.896-2.593-.597-.698-1.393-.997-2.389-.997-.995 0-1.792.299-2.389.997-.597.698-.797 1.496-.797 2.593v1.695c0 1.097.299 1.995.896 2.593.598.698 1.394.997 2.39.997.995 0 1.792-.299 2.389-.997.597-.698.896-1.596.896-2.593v-1.695h-.1zm14.336-1.496c0 .499-.199.997-.497 1.396-.299.399-.797.698-1.394.898.697.199 1.194.498 1.493.897.299.399.498.898.498 1.596 0 .897-.299 1.595-.996 2.094-.697.499-1.593.798-2.787.798-.996 0-1.892-.2-2.589-.698-.696-.499-1.095-1.197-1.095-2.194h.896c0 .698.299 1.196.797 1.595.498.399 1.194.599 2.09.599.896 0 1.693-.2 2.191-.599.497-.399.796-.897.796-1.595s-.199-1.297-.697-1.596c-.498-.299-1.195-.498-2.19-.498h-1.294v-.798h1.294c.995 0 1.692-.2 2.091-.499.398-.299.696-.797.696-1.495 0-.599-.199-1.097-.696-1.496-.498-.399-1.195-.599-2.091-.599-.796 0-1.394.2-1.892.599-.497.399-.796.897-.796 1.496h-.896c0-.898.299-1.496.996-1.995a4.124 4.124 0 012.488-.798c1.195 0 2.091.2 2.688.698.498.599.896 1.297.896 2.194zm13.54-2.692h.896v10.072h-.896v-8.676l-6.073 8.676h-.796v-10.072h.896v8.675l5.973-8.675zm15.032.698h-3.584v9.374h-.896v-9.374h-3.584v-.698h8.064v.698zm13.142-.698h.896v10.072h-.896v-8.676l-6.073 8.676h-.896v-10.072h.896v8.675l6.073-8.675zm8.063 10.072v-10.072h3.087c1.095 0 1.991.199 2.588.698.597.399.896 1.097.896 1.994 0 .499-.1.997-.398 1.396-.299.399-.697.599-1.195.798.598.1 1.195.399 1.493.898.399.498.598.997.598 1.595 0 .898-.299 1.596-.896 2.094-.597.499-1.394.698-2.489.698h-3.684v-.099zm.896-5.485h2.39c.796 0 1.394-.199 1.792-.499.398-.299.597-.797.597-1.396 0-.698-.199-1.097-.697-1.496-.398-.299-1.095-.498-1.991-.498h-2.19v3.889h.099zm0 .698v4.188h2.788c.796 0 1.394-.199 1.892-.498.398-.399.696-.898.696-1.596 0-.598-.199-1.097-.597-1.496-.398-.399-.995-.598-1.792-.598h-2.987zm20.509 4.787h-.797v-4.687h-5.973v4.687h-.896v-10.072h.896v4.687h5.973v-4.687h.896v10.072h-.099zm14.236-10.072h.896v10.072h-.896v-8.676l-6.073 8.676h-.896v-10.072h.896v8.675l6.073-8.675zm11.349 4.288l2.987-4.288h1.095l-3.485 4.986 3.584 5.086h-.995l-3.086-4.488-3.087 4.488h-1.095l3.584-5.086-3.484-4.986h1.095l2.887 4.288zm26.183-4.288v10.072h-.896v-9.374h-4.48l-.199 3.889c-.1 2.094-.299 3.49-.697 4.288-.398.798-1.095 1.197-2.19 1.197h-.299v-.699h.299c.696 0 1.194-.299 1.493-.997.299-.698.498-1.894.597-3.789l.199-4.587h6.173zm18.417 5.883c0 1.297-.398 2.394-1.095 3.191-.796.798-1.792 1.197-2.986 1.197-1.195 0-2.19-.399-2.987-1.197-.697-.797-1.095-1.894-1.095-3.191v-.498h-1.991v4.786h-.896v-10.071h.896v4.587h1.991v-.399c0-1.297.398-2.394 1.095-3.191.697-.798 1.693-1.197 2.987-1.197s2.289.399 2.986 1.197c.797.797 1.095 1.894 1.095 3.191v1.595zm-.896-1.695c0-1.097-.298-1.994-.896-2.593-.597-.698-1.393-.997-2.389-.997-.995 0-1.792.299-2.389.997-.597.698-.797 1.496-.797 2.593v1.695c0 1.097.299 1.995.896 2.593.598.698 1.394.997 2.39.997.995 0 1.792-.299 2.389-.997.597-.698.896-1.596.896-2.593v-1.695h-.1zm16.327 8.377h-.896v-2.493h-8.064v2.493h-.796v-3.192h.697c.398-.398.796-1.096 1.195-1.994.398-.897.597-2.194.696-3.789l.2-3.59h5.873v9.373h1.095v3.192zm-6.272-8.876c-.099 1.297-.298 2.493-.597 3.491-.299.997-.697 1.695-1.195 2.293h6.073v-8.675h-4.081l-.2 2.891zm18.517 1.496H312.6v4.188h5.874v.699h-6.67v-10.072h6.67v.698H312.6v3.789h5.077v.698zm14.038-5.185h.896v10.072h-.896v-8.676l-6.073 8.676h-.896v-10.072h.896v8.675l6.073-8.675zm-.896-2.693c0 .499-.199.998-.598 1.297a2.443 2.443 0 01-1.493.498c-.697 0-1.195-.199-1.493-.498-.399-.299-.598-.798-.598-1.297h.697c0 .399.1.599.299.898.199.199.597.299.995.299.498 0 .797-.1.996-.299.199-.2.299-.499.299-.898h.896z" fill="#fff"/></g><defs><clipPath id="clip0"><path fill="#fff" d="M0 0h536v178H0z"/></clipPath></defs></svg>