<svg width="42" height="59" fill="none" xmlns="http://www.w3.org/2000/svg"><path d="M21 59C6.999 41.035 0 28.252 0 20.65c0-2.712.543-5.397 1.599-7.902a20.63 20.63 0 014.552-6.7 21.027 21.027 0 016.813-4.476A21.31 21.31 0 0121 0c2.758 0 5.488.534 8.036 1.572a21.027 21.027 0 016.813 4.476 20.63 20.63 0 014.553 6.7A20.353 20.353 0 0142 20.65c0 7.602-6.999 20.385-21 38.35z" fill="#85C441"/><path fill-rule="evenodd" clip-rule="evenodd" d="M33 22.666l-4.31-4v-5.999h-2.88V16l-4.31-4L10 22.666v.667h2.881V30h7.178v-4h2.881v4h7.179v-6.667H33v-.667z" fill="#fff"/></svg>